<?xml version="1.0" encoding="utf-8" ?>
<svg xmlns="http://www.w3.org/2000/svg" xmlns:xlink="http://www.w3.org/1999/xlink" width="50" height="36">
	<defs>
		<clipPath id="clip_0">
			<rect x="-348" y="-880" width="2880" height="2788" clip-rule="evenodd"/>
		</clipPath>
	</defs>
	<g clip-path="url(#clip_0)">
		<path fill="rgb(46,46,46)" stroke="none" transform="matrix(2 0 0 2 0.203125 0.429688)" d="M2.08333 0L22.2321 0C23.381 0 24.3155 0.911613 24.3155 2.03226L24.3155 15.5206C24.3155 16.6413 23.381 17.5529 22.2321 17.5529L2.08333 17.5529C1.59524 17.5529 1.14881 17.3845 0.791667 17.1058C0.77381 17.0942 0.755952 17.0768 0.738095 17.0594C0.291667 16.6877 0 16.1419 0 15.5206L0 2.03226C0 0.911613 0.934524 0 2.08333 0ZM2.08333 1.74194L22.2321 1.74194C22.3929 1.74194 22.5298 1.86968 22.5298 2.03226L22.5298 14.4523L18.9405 10.9452C18.7738 10.7826 18.5476 10.7071 18.3036 10.6955C18.0595 10.6955 17.8333 10.7884 17.6667 10.9568L13.4583 15.1955L8.17857 4.97613C8.02976 4.68581 7.72619 4.5 7.39286 4.49419C7.05357 4.50581 6.75 4.66839 6.59524 4.95871L1.78571 13.7439L1.78571 2.03226C1.78571 1.86968 1.92262 1.74194 2.08333 1.74194ZM2.67857 15.811L11.7798 15.811L7.3631 7.25806L2.67857 15.811ZM15.3333 15.811L21.4048 15.811L18.3214 12.8032L15.3333 15.811Z" fill-rule="evenodd"/>
	</g>

</svg>