<svg xmlns="http://www.w3.org/2000/svg" width="238" height="218" viewBox="0 0 238 218"><g><g><path d="M119.771 162.66v-14.35H74V134h90v29.596c0 6.823-1.78 12.263-5.341 16.319-3.561 4.057-9.074 6.085-16.54 6.085-8.152 0-13.915-2.019-17.288-6.053-3.373-4.035-5.06-9.796-5.06-17.286zm32.245-1.371v-12.98H131.67v12.98c0 3.286.829 5.842 2.485 7.666 1.656 1.824 4.281 2.736 7.875 2.736 3.594 0 6.156-.912 7.688-2.736 1.531-1.824 2.297-4.38 2.297-7.666z"/></g><g clip-path="url(#clip-BD0AE51D-79AC-4C42-ADF6-88AB4EC62368)"><path fill="#5a07ff" d="M226.86 0C232.94 0 238 4.748 238 10.808v196.325c0 6.058-5.06 10.867-11.14 10.867H11.068C4.992 218 0 213.19 0 207.133V10.808C0 4.748 4.992 0 11.068 0zM49.654 21.641c-3 0-5.43 2.424-5.43 5.414 0 2.99 2.43 5.414 5.43 5.414 2.999 0 5.43-2.424 5.43-5.414 0-2.99-2.431-5.414-5.43-5.414zm-22.292 0c-3 0-5.43 2.424-5.43 5.414 0 2.99 2.43 5.414 5.43 5.414 2.999 0 5.43-2.424 5.43-5.414 0-2.99-2.431-5.414-5.43-5.414zm-5.398 174.46h193.754V54.582H21.964zM66.22 32.675h149.488V21.898H66.22z"/></g><g clip-path="url(#clip-BD0AE51D-79AC-4C42-ADF6-88AB4EC62368)"><path d="M93 104L79.2 90.493l13.797-13.5L83.794 68 69.996 81.5 56.199 68 47 76.992 60.8 90.5 47 104l9.2 9 13.796-13.5L83.799 113z"/></g><g clip-path="url(#clip-BD0AE51D-79AC-4C42-ADF6-88AB4EC62368)"><path d="M192 104l-13.8-13.507 13.797-13.5L182.794 68l-13.798 13.5L155.199 68 146 76.992 159.8 90.5 146 104l9.2 9 13.796-13.5 13.803 13.5z"/></g></g></svg>