<svg xmlns="http://www.w3.org/2000/svg" width="185" height="132" viewBox="0 0 185 132"><g><g><g><path d="M16.969 53.725a5.478 5.478 0 0 0-1.053-1.094l1.18-.184.21.035c1.126.201 1.614.485 1.99 1.611.182.544.366 1.207.334 1.774-.082 1.453-.99 2.602-2.443 2.847-.143.024-.285.04-.428.05 1.19-1.394 1.33-3.502.21-5.04zm0 14.819a5.478 5.478 0 0 0-1.053-1.094l1.18-.184.21.035c1.126.202 1.614.485 1.99 1.611.182.544.366 1.207.334 1.774-.082 1.453-.99 2.602-2.443 2.847-.143.024-.285.04-.428.05 1.19-1.394 1.33-3.502.21-5.04zm0 14.82a5.478 5.478 0 0 0-1.053-1.094l1.18-.185.21.035c1.126.202 1.614.485 1.99 1.611.182.544.366 1.207.334 1.774-.082 1.453-.99 2.602-2.443 2.847-.143.024-.285.04-.428.05 1.19-1.393 1.33-3.502.21-5.039zm0 14.82a5.483 5.483 0 0 0-1.053-1.095l1.18-.185.21.035c1.126.202 1.614.486 1.99 1.614.182.545.366 1.209.334 1.777-.082 1.455-.99 2.606-2.443 2.851-.143.025-.285.04-.428.05 1.19-1.395 1.33-3.507.21-5.047zM73.683 55.89c-.003 14.928-.767 29.88-1.335 44.794-.132 3.491.079 6.966-.09 10.45-.161 3.357.612 8.533-3.297 9.853-7.608 2.57-16.662 1.547-24.558 1.437-8.039-.112-16.02.486-24.03-.297-1.843-.18-3.798-.175-5.603-.64-1.562-.403-1.701-1.003-1.863-2.495-.08-.746-.103-1.49-.198-2.237-.464-3.638-.225-7.49-.76-11.151 1.014-.146 1.962-.42 2.89-.922 1.356.517 2.81.42 4.24-.312 1.763-.904 2.43-3.197 2.138-5.027-.305-1.916-.984-3.644-3.05-4.1-1.223-.269-4.027-.679-4.792.703a8.915 8.915 0 0 0-1.2-.164c.09-.959.016-1.979-.08-2.888-.072-.669-.044-1.412-.146-2.109 1.014-.146 1.962-.42 2.89-.922 1.356.517 2.81.421 4.24-.312 1.763-.904 2.43-3.197 2.138-5.027-.305-1.915-.984-3.644-3.05-4.1-1.223-.269-4.027-.679-4.792.703a8.917 8.917 0 0 0-1.2-.164c.09-.959.016-1.979-.08-2.888-.072-.668-.044-1.412-.146-2.109 1.014-.146 1.962-.42 2.89-.922 1.356.517 2.81.421 4.24-.312 1.763-.904 2.43-3.197 2.138-5.027-.305-1.915-.984-3.644-3.05-4.1-1.223-.269-4.027-.679-4.792.703a8.917 8.917 0 0 0-1.2-.164c.09-.959.016-1.979-.08-2.888-.072-.668-.044-1.412-.146-2.109 1.014-.146 1.962-.42 2.89-.922 1.356.517 2.81.42 4.24-.312 1.763-.904 2.43-3.197 2.138-5.027-.305-1.916-.984-3.644-3.05-4.1-1.223-.269-4.027-.679-4.792.703a9.613 9.613 0 0 0-1.918-.192c.038-2.624-.217-5.27-.123-7.891.083-2.327 1.709-2.366 3.633-2.74 1.99-.386 4.067-.5 6.098-.465 6.836.118 13.68.472 20.522.441 7.454-.032 14.903.148 22.348.125 3.486-.01 9.68-.963 9.777 3.975.073 3.71-.028 7.436-.029 11.148zm-65.79 47.967c-1.437-.052-3.291-.296-4.614-.885-2.98-1.328-.056-3.505 1.764-4.055 1.78-.538 3.452-.86 5.298-1.029.479-.044.97-.065 1.452-.127.465.06.925.145 1.373.269.999.276 2.089.783 2.481 1.829.583 1.553-.732 2.504-1.885 3.207-1.691 1.03-3.939.86-5.87.79zm0-14.82c-1.437-.052-3.291-.295-4.614-.885-2.98-1.327-.056-3.505 1.764-4.054 1.78-.538 3.452-.86 5.298-1.029.479-.044.97-.065 1.452-.127.465.06.925.145 1.373.269.999.276 2.089.783 2.481 1.829.583 1.553-.732 2.504-1.885 3.207-1.691 1.03-3.939.86-5.87.79zm0-14.819c-1.437-.052-3.291-.295-4.614-.885-2.98-1.327-.056-3.505 1.764-4.054 1.78-.538 3.452-.86 5.298-1.03.479-.043.97-.064 1.452-.126.465.06.925.144 1.373.269.999.276 2.089.783 2.481 1.828.583 1.553-.732 2.505-1.885 3.208-1.691 1.03-3.939.86-5.87.79zm0-14.819c-1.437-.052-3.291-.296-4.614-.885-2.98-1.327-.056-3.505 1.764-4.055 1.78-.537 3.452-.86 5.298-1.029.479-.044.97-.064 1.452-.126.465.06.925.144 1.373.268.999.277 2.089.783 2.481 1.829.583 1.553-.732 2.505-1.885 3.207-1.691 1.031-3.939.861-5.87.791zm68.031-15.08c-.124-3.188-1.902-5-5.137-5.509-3.775-.593-7.795-.27-11.613-.331-4.307-.07-8.626-.032-12.94-.031-9.256.002-18.565-.648-27.806-.385-2.157.061-4.367.398-6.464.91-1.199.294-2.192.854-2.645 2.055-.662 1.756-.174 4.145-.117 5.974.047 1.483.173 2.948.244 4.425-2.9.373-7.823.894-9.09 4.05-2.115 5.275 5.728 5.807 9.028 5.82.181 0 .357-.002.533-.005-.068.645-.018 1.32.023 1.931.066.98-.053 1.987.024 2.967-2.997.296-8.302.851-9.607 4.106-2.116 5.275 5.727 5.807 9.027 5.82.181.001.357-.002.533-.004-.068.644-.018 1.318.023 1.93.066.98-.053 1.987.024 2.967-3.002.297-8.3.847-9.607 4.106-2.116 5.275 5.727 5.807 9.027 5.82.181.001.357-.002.533-.004-.068.644-.018 1.319.023 1.93.066.98-.053 1.987.024 2.967-3.01.298-8.294.832-9.607 4.106-2.116 5.276 5.728 5.807 9.027 5.82.182.001.357-.001.533-.004a7.64 7.64 0 0 0-.025 1.066c-.132 3.463.13 6.788.526 10.246.36 3.128.07 5.796 3.742 6.613 3.51.78 7.227.804 10.796 1.128 3.95.357 8.207.152 12.177-.017 9.29-.395 18.67.676 27.914-.66 2.975-.43 7.01-.968 8.42-4.023 1.429-3.095 1.063-7.44 1.136-10.765.046-2.099-.218-4.178-.13-6.283.086-2.016.247-4.033.252-6.052.01-4.367.306-8.74.359-13.114.106-8.744.838-17.431.836-26.181-.001-4.451.178-8.943.004-13.39z"/></g><g><path d="M94.082 128.971c-1.543 1.307-4.206 1.022-5.802.013-1.61-1.018-2.455-2.769-2.927-4.558a20.578 20.578 0 0 1-.39-1.88c3.595.311 7.305-.078 10.907-.145.099 2.564-.132 5.167-1.788 6.57zm-9.491-9.799c1.884-.087 3.79-.014 5.676-.114 1.49-.08 3.638.252 5.366-.012.037.478.08.985.12 1.506-3.658.133-7.335.358-10.943.983-.098-.781-.17-1.57-.219-2.363zm-.175-5.191a407.703 407.703 0 0 1-.196-11.85c-.013-6.81-.33-13.607-.409-20.392-.018-1.62-.621-4.543.11-6.048.317.252.534.632.86.891.544.434 1.208.73 1.899.823a3.23 3.23 0 0 0 2.044-.38 1.61 1.61 0 0 0 .302-.224c.046 6.78-.527 13.531-.52 20.31.004 3.732.02 7.461.294 11.185.123 1.676.161 3.345.226 5.024.052 1.363-.157 2.816.32 4.12l.014.023c-.182.006-.366.01-.545.019-1.427.074-2.878.078-4.293.274-.049-1.274-.068-2.542-.106-3.775zm2.432-50.056c1.19.686 2.97.77 3.892-.173.024-.024.041-.05.06-.075.283.581.561 1.164.81 1.767.594 1.448 1.347 2.847 1.85 4.329.42 1.233.641 2.521 1.034 3.76-.99 1.109-2.614 3.574-3.493.822-.136-.426-.656-.84-1.13-.64-.694.291-.898.919-1.49 1.285-2.353 1.453-2.785-.885-4.341-1.266.964-3.26 1.85-6.547 2.808-9.809zm1.034-3.396c.284-.893.132-1.72 1.003-1.118.502.347.67 1.6.927 2.183.15.34.307.676.467 1.008a.669.669 0 0 0-.503.186c-.709.644-1.766.358-2.565-.059.221-.734.44-1.47.671-2.2zm7.195 17.91c.125 1.925.001 3.876.016 5.806.03 4.045.247 8.096.122 12.148-.214 6.965.24 13.887.333 20.849-1.563.217-3.244.185-4.862.19v-.002c.55-2.644-.024-6.029-.23-8.721-.297-3.866-.372-7.728-.44-11.603-.116-6.712.372-13.416.297-20.129.392.424.897.712 1.57.732 1.493.045 2.3-.953 3.15-1.908.074.894-.005 1.881.044 2.638zm2.551 35.48a612.85 612.85 0 0 1-.375-12.913c-.082-4.986.271-9.97.039-14.963-.116-2.496.057-5.004-.078-7.497-.29-5.356-2.264-10.788-4.715-15.545-.712-1.38-2.012-6.7-4.453-5.924-1.301.413-1.66 2.168-1.995 3.289-.542 1.811-1.007 3.641-1.534 5.458-1.056 3.641-2.402 7.305-2.482 11.138-.083 3.947.008 7.896.01 11.848.002 5.05.247 10.09.174 15.137-.065 4.457.137 8.94.213 13.396.06 3.42.294 7.304 1.852 10.416 2.895 5.778 12.063 5.864 13.337-1.056.763-4.142.165-8.597.007-12.783z"/></g><g><path d="M47.144 77.229c-.742.371-1.884.13-2.66.135-1.924.012-3.787.195-5.714.119-1.22-.049-2.449.117-3.665.046-2.638-.155-1.86-1.458-1.201-3.229.858-2.309 1.929-4.543 2.859-6.827.095-.235.185-.473.278-.71 1.548.147 3.157.001 4.737-.469a10.911 10.911 0 0 0 2.048-.838c.825 1.696 1.64 3.401 2.572 5.036.628 1.1 1.352 2.265 1.76 3.468.426 1.255.553 2.484-1.014 3.269zm-3.938-13.021c-.54.295-1.139.55-1.808.752a11.221 11.221 0 0 1-3.832.458c.278-.728.554-1.459.834-2.187.502-1.304 1.915-4.604 3.012-2.447.506.993 1.067 1.964 1.566 2.96.077.153.151.31.228.464zm-14.56-5.686c-.877-3.325-.082-5.962 2.128-8.534 2.12-2.467 5.334-4.11 8.75-3.41 2.564.525 4.813 2.621 5.96 4.836 2.147 4.149 2.324 9.201-1.09 11.992-.338-.641-.676-1.282-1.008-1.926-.543-1.053-1.721-5.358-3.594-3.484-.886.887-1.652 2.865-2.187 3.966-.277.57-.464 1.165-.626 1.768-.216.516-.426 1.034-.638 1.552-3.583-.597-6.696-2.971-7.696-6.76zM48.766 71.85c-1.176-2.422-2.45-4.8-3.714-7.183 3.69-2.797 4.353-7.806 2.416-12.455-1.172-2.813-3.093-5.25-5.993-6.499-1.654-.712-3.142-.852-4.566-.59a.352.352 0 0 0-.189-.036c-6.334.614-10.867 7.6-9.466 13.448 1.044 4.354 4.49 7.235 8.556 8.047-.366.897-.731 1.792-1.106 2.68-.714 1.688-1.543 3.322-2.189 5.044-.355.948-1.271 2.44-.633 3.46.613.979 2.205 1.068 3.221 1.108 1.726.07 3.461.057 5.186.118 1.486.053 2.942-.183 4.42-.22 1.395-.033 2.88.168 4.108-.698 2.179-1.536.847-4.376-.05-6.224z"/></g><g><path d="M53.59 84.219c-4.47-.398-9.175-.138-13.675-.11-4.17.027-8.669-.223-12.781.272-.178.021-.179.217 0 .238 4.115.495 8.611.245 12.781.271 4.5.029 9.207.288 13.675-.109.546-.048.547-.514 0-.562z"/></g><g><path d="M53.59 88.219c-4.47-.398-9.175-.138-13.675-.11-4.17.027-8.669-.223-12.781.272-.178.021-.179.217 0 .238 4.115.495 8.611.245 12.781.271 4.5.029 9.207.289 13.675-.109.546-.048.547-.514 0-.562z"/></g><g><path d="M53.59 92.219c-4.47-.398-9.175-.138-13.675-.11-4.17.027-8.669-.223-12.781.272-.178.021-.179.217 0 .238 4.115.495 8.611.245 12.781.271 4.5.029 9.207.288 13.675-.109.546-.048.547-.514 0-.562z"/></g><g><path d="M53.59 96.219c-4.47-.398-9.175-.138-13.675-.11-4.17.027-8.669-.223-12.781.272-.178.021-.179.217 0 .238 4.115.495 8.611.245 12.781.271 4.5.029 9.207.288 13.675-.109.546-.048.547-.514 0-.562z"/></g><g><path d="M53.59 100.219c-4.47-.398-9.175-.138-13.675-.11-4.17.027-8.669-.223-12.781.272-.178.021-.179.217 0 .238 4.115.495 8.611.245 12.781.271 4.5.029 9.207.288 13.675-.109.546-.048.547-.514 0-.562z"/></g><g><path d="M67.772 51.219c-2.483-.398-5.097-.138-7.597-.11-2.316.027-4.816-.223-7.1.272-.1.021-.1.217 0 .238 2.286.495 4.783.245 7.1.271 2.5.029 5.115.289 7.597-.109.304-.048.304-.514 0-.562z"/></g><g><path d="M67.772 56.219c-2.483-.398-5.097-.138-7.597-.11-2.316.027-4.816-.223-7.1.272-.1.021-.1.217 0 .238 2.286.495 4.783.245 7.1.271 2.5.029 5.115.289 7.597-.109.304-.048.304-.514 0-.562z"/></g><g><path d="M67.772 60.219c-2.483-.398-5.097-.138-7.597-.11-2.316.027-4.816-.223-7.1.272-.1.021-.1.217 0 .238 2.286.495 4.783.245 7.1.271 2.5.029 5.115.288 7.597-.109.304-.048.304-.514 0-.562z"/></g><g><path d="M67.772 64.219c-2.483-.398-5.097-.138-7.597-.11-2.316.027-4.816-.223-7.1.272-.1.021-.1.217 0 .238 2.286.495 4.783.245 7.1.271 2.5.029 5.115.288 7.597-.109.304-.048.304-.514 0-.562z"/></g><g><path d="M67.772 68.219c-2.483-.398-5.097-.138-7.597-.11-2.316.027-4.816-.223-7.1.272-.1.021-.1.217 0 .238 2.286.495 4.783.245 7.1.271 2.5.029 5.115.289 7.597-.109.304-.048.304-.514 0-.562z"/></g><g><path d="M62.655 107.25a25.721 25.721 0 0 0-2.476-.045c-.543.022-1.45.26-2.142.277 3.168-3.925 7.448-7.149 6.918-12.634-.204-2.112-.86-4.475-2.407-6.09-.936-.978-2.774-2.788-4.297-2.758-.455.01-.685.628-.243.839 1.29.616 3.008 2.265 3.79 3.36 1.433 2.008 1.917 5.097 1.343 7.395-.855 3.42-3.45 5.669-5.725 8.218-.072-1.117-.243-2.227-.9-3.121-.437-.594-1.525-.413-1.516.383.018 1.69.28 3.794.982 5.36.145.323.395.555.79.562 1.917.035 3.964-.174 5.883-.288 1.004-.06 1.007-1.4 0-1.459z"/></g><g><path d="M51.285 112.64c-.114 1.3-1.33 2.029-2.546 2.317-1.421.338-3.179.244-4.643.276-3.09.067-6.17.141-9.26.237-2.558.08-8.242 1.226-9.401-1.733-.39-.997.573-2.696 1.483-3.038.67-.252 1.656-.203 2.362-.255 1.373-.101 2.718-.033 4.09.035 3.053.15 6.11.06 9.166.049 1.958-.007 3.917-.146 5.875-.07 1.866.073 3.058.084 2.874 2.182zm1.318-2.544c-.458-.617-1.161-.629-1.867-.725-1.924-.262-3.876-.342-5.815-.332-1.806.01-3.563.018-5.359.189a18.43 18.43 0 0 1-1.68.065c-2.257-.111-4.512-.278-6.771-.287-1.767-.006-5.272-.159-6.424 1.532-.914 1.34-1.03 4.381.355 5.462 1.806 1.409 5.586.948 7.665.849 3.8-.182 7.593-.205 11.396-.28 2.192-.042 5.46.22 7.316-1.144 1.219-.894 2.141-4.038 1.184-5.329z"/></g></g><g><g><path d="M182.903 87.344c-1.397 3.028-5.965 3.236-8.752 3.374-1.578.078-3.09-.056-4.584-.313-.074-3.971-.033-7.946.01-11.917.023-2.058.077-4.126.139-6.196 3.84 1.164 7.596 2.475 10.651 4.855 3.158 2.53 4.004 5.928 2.536 10.197zm-17.022 2.203a42.608 42.608 0 0 1-3.777-1.297c.097-5.661.423-11.343.082-16.982-.027-.454-.057-.92-.085-1.377 2.098.78 4.299 1.41 6.49 2.06a496.651 496.651 0 0 0-.194 9.13c-.016 1.548-.46 5.265-.59 8.973a39.56 39.56 0 0 1-1.926-.507zm-3.87-21.094c-.372-5.92-.757-12.098-.743-18.16 2.564-.281 5.22.416 7.652 1.696.07 6.176-.119 12.368-.299 18.55-1.884-.563-3.723-1.087-5.378-1.648-.414-.14-.825-.286-1.232-.438zm-7.537-4.447c-4.456-4.275-.48-11.324 4.381-13.165a9.663 9.663 0 0 1 1.586-.441c-.087 5.911.332 11.935.549 17.65-2.396-.984-4.64-2.245-6.516-4.044zm15.286 6.874c.194-6.069.426-12.17.307-18.24 3.881 2.403 7.01 6.245 7.925 9.881.178.71 1.307.409 1.125-.3-1.178-4.622-4.7-8.504-9.077-10.747-.103-3.725-.34-7.436-.848-11.114-.064-.467-.818-.493-.776 0 .301 3.52.45 7.054.507 10.592-2.417-1.052-5.04-1.62-7.65-1.544.028-3.07.154-6.106.465-9.048.028-.268-.44-.33-.485-.063-.495 2.97-.71 6.049-.785 9.164-.183.015-.368.015-.55.037-6.197.718-11.145 9.337-6.963 14.439 2.16 2.633 4.983 4.284 8.08 5.54.171 6.012-.13 12.167-.14 18.271-6.066-2.638-12.45-7.272-8.635-13.624.21-.35-.318-.634-.551-.313-4.765 6.592 1.12 12.462 9.201 15.666.03 3.383.164 6.746.56 10.051.075.623 1.088.635 1.018 0-.351-3.189-.423-6.399-.399-9.617a37.903 37.903 0 0 0 5.688 1.53c-.036 3.608.321 6.95 1.798 7.952.368.249.7-.217.553-.537-.882-1.905-.552-4.98-.553-7.129 8.07 1.1 15.545-.724 15.424-7.11-.16-8.405-7.857-11.48-15.24-13.737z"/></g></g><g transform="matrix(1 0 0 -1 0 30)"><g><path fill="#5a07ff" d="M109.182 20.252a22.595 22.595 0 0 0 2.535-1.835c.585.432 1.267.864 2.047 1.295.292.108.487.216.78.324-.975.971-1.95 1.726-3.12 2.482-.78-.54-1.56-1.403-2.242-2.266zm.683-8.956c-.098-1.835.78-3.453 1.56-4.964.877-1.619 3.606 3.345 3.411 4.532-.292 1.942-1.364 3.56-2.827 4.964-1.17-1.08-1.95-2.59-2.144-4.532zm-3.022 3.244c-.877-3.995.195-9.177 3.314-11.66 5.167-4.103 9.943 5.506 8.773 10.149a14.795 14.795 0 0 1-2.632 5.29c-.292-.108-.585-.216-.78-.324-.682-.215-1.462-.647-2.046-1.08 3.996-4.21 5.36-10.04-1.853-13.172-.487-.216-.877.108-1.17.54-3.118 4.75-3.021 9.502.098 12.957a8.459 8.459 0 0 1-2.34 1.295 15.624 15.624 0 0 1-1.364-3.995zm26.61 6.575c-5.653 3.993-14.036 5.827-19.982 2.806a23.116 23.116 0 0 0 3.315-3.022c5.75 1.619 12.476.108 16.668-4.424.975-.971-.488-2.59-1.462-1.619-3.607 3.885-8.676 4.964-13.55 4.1 2.73-3.668 3.997-7.876 2.145-12.085-1.95-4.316-6.14-8.309-10.722-6.366-4.29 1.726-5.556 7.877-5.459 12.301 0 2.59.585 4.856 1.462 6.69-2.34.864-4.679 1.187-6.433 1.187-8.383-.324-13.842-11.33-17.546-18.344-.39-.863-1.462-.108-1.17.755 4.777 11.87 13.647 23.308 26.124 18.344.682.972 1.462 1.943 2.34 2.698-3.412 1.834-7.019 2.806-10.04 2.698-9.65-.432-20.666-9.712-19.788-21.257.097-.756-1.072-.864-1.17-.216-1.95 14.135 11.892 23.955 23.297 23.631 2.73-.108 6.336-1.403 9.747-3.56 6.824 3.776 17.059 2.266 23.2-2.267 1.267-.863.195-2.913-.975-2.05z"/></g><g><path fill="#5a07ff" d="M142.255 11.644c-4.791-.759-9.877-.867-14.668-.217-.783.108-.783 1.192 0 1.3 4.205.543 8.605.434 12.908 1.085-1.271 4.878-2.445 9.756-3.716 14.525-.391 1.626 1.956 2.385 2.347.759 1.369-5.312 2.542-10.623 3.814-15.935.195-.542-.098-1.409-.685-1.517z"/></g></g></g></svg>