<svg xmlns="http://www.w3.org/2000/svg" width="98" height="111" viewBox="0 0 98 111"><g><g><g><path d="M94.236 79.47c-8.519.44-16.987.095-25.496.293-.179-3.107-.354-6.214-.447-9.32 8.704.158 17.406-.27 26.112-.31 0 2.847-.068 6.069-.17 9.338zm-.37 9.532c-1.872-.36-4.112.095-5.78.141-6.288.178-12.577.26-18.865.44-.09-2.92-.253-5.84-.42-8.76 8.17.786 17.659 2.73 25.381.249a842.255 842.255 0 0 1-.315 7.93zm-.434 9.726c-7.989 1.208-16.001.064-24.004.826a24.55 24.55 0 0 1-.143-3.266c.04-1.965.012-3.931-.04-5.896 5.77-.061 20.657-.332 24.544.341-.152 3.357-.29 6.205-.357 7.995zM80.3 108.15c-6.355-.44-9.661-2.216-10.66-7.356 4.67-.125 9.327.26 13.994.441 3.017.117 6.694.497 9.745-.52-.014 9.072-7.34 7.832-13.08 7.435zM68.332 61.234a.875.875 0 0 0 .38.036c8.137-1.05 16.425-.855 24.604-.886.716-.003 1.012 3.158 1.076 7.7-8.71.186-17.413.871-26.116 1.296-.064-2.716-.072-5.431.056-8.146zm-3.44 21.834c-1.172 7.521-8.481 12.905-14.08 16.172a1.026 1.026 0 0 0-.523.859c-8.352 2.254-16.028 1.267-21.04-7.31-3.846-6.58-3.959-15.339-1.652-22.521 3.372-10.499 13.886-14.33 22.991-11.351 9.1 2.977 15.915 13.819 14.305 24.15zM29.717 96.73c-9.131-.129-18.149-1.372-27.226-2.342.07-1.116.172-2.237.286-3.356.017.027.013.065.041.08 2.379 1.247 6.297.282 8.847.237 4.63-.083 9.25-.148 13.862.354.528.058.752-.556.644-1.035.982 2.187 2.214 4.214 3.686 5.963-.05.026-.092.066-.14.099zm-26.939 6.004c-.399-2.28-.454-4.71-.347-7.184 8.95 1.614 17.966 2.756 27.04 2.883 1.092 7.064-21.146 4.31-26.693 4.3zm.766-18.547c6.789.201 13.58-.432 20.37-.457.057 0 .1-.023.15-.035a28.905 28.905 0 0 0 1.99 6.7c-.083-.113-.176-.224-.334-.254-4.228-.78-8.693-.427-12.956-.298-2.865.087-7.313-.59-9.945.861-.004.003-.003.01-.006.013.234-2.23.502-4.411.731-6.53zm.234-2.204c.166-1.925.297-3.853.421-5.782 6.38 1.018 12.864-.582 19.31.02.116.01.212-.011.301-.04a28.157 28.157 0 0 0 .019 5.86c-6.737.1-13.464.754-20.188 1.232.043-.425.101-.873.137-1.29zm.908-14.695c7.121.367 14.887.546 21.93-.512a25.193 25.193 0 0 0-2.626 7.842.78.78 0 0 0-.48-.23c-6.445-.552-12.803 1.011-19.234.761.16-2.618.283-5.24.41-7.86zm.446-8.386c4.036-.451 8.094-.605 12.15-.623 4.137-.02 8.415.945 12.57.707-.02.535-.057 1.07-.069 1.606-.01.496.23.807.543.954a21.288 21.288 0 0 0-1.54 1.779c-.478.619-.88 1.27-1.286 1.917-7.282-1.075-15.361.448-22.764 1.084.12-2.475.261-4.949.396-7.425zm.226-4.217c.097-1.521.175-3.04.264-4.56 7.785 2.417 17.065.475 24.82-.738-.174 2.476-.363 4.952-.497 7.431-7.727-.909-17.042-1.003-24.754.993.058-1.042.1-2.084.167-3.126zm.675-13.209c7.795.15 15.146-.648 22.936.675.258.044.453-.067.605-.221.037.197.153.385.384.412.281.032.564.047.846.077-.062 1.79-.17 3.579-.287 5.367-.057-.017-.092-.074-.156-.074-8.325.001-16.4 3.07-24.673 1.256.142-2.495.233-4.994.345-7.492zm.257-5.57c.196-6.256 13.515-4.207 16.697-4.25 7.57-.107 8.044 2.616 7.867 9.75-.295-.007-.59-.005-.887-.014-.077-.002-.117.045-.172.073.022-.247-.035-.506-.289-.698-2.804-2.124-7.291-1.556-10.494-1.418-4.317.186-8.617.741-12.93 1.054.065-1.499.162-2.995.208-4.496zm26.122-12.063c4.816.776 9.7 1.12 14.553 1.383 4.243.23 10.49 1.3 14.427-.965.094-.054.13-.148.184-.23a382.28 382.28 0 0 1-.654 8.24c-2.836-1.41-7.695-.777-10.375-.8-5.962-.049-11.923.342-17.88.603-.031-.452-.028-.902-.069-1.354a1.398 1.398 0 0 0-.281-.746c.047-2.044.068-4.088.095-6.13zm.384-9.693c9.663-.792 18.957-1.74 28.481.8.27.073.53-.085.7-.31a172.241 172.241 0 0 1-.33 8.612c-.112-.248-.305-.453-.592-.445-9.59.267-19.015.186-28.619-.078.045-2.865.14-5.726.36-8.58zm.716-6.074C34.848.262 47.037 2.93 51.584 2.864c5.322-.078 10.089-1.17 10.354 6.166.057 1.578.028 3.154.016 4.73-.018-.02-.012-.047-.034-.067-3.371-2.938-9.217-2.335-13.216-2.249-5.279.113-10.587.811-15.819 1.658.153-1.679.34-3.356.626-5.026zm26.557 33.682c-9.062-.976-18.167-.251-27.257-.324.094-2.848.058-5.7-.104-8.558 5.2.111 10.4.149 15.6.26 1.08.023 11.533.091 12.465.805-.24 2.606-.484 5.212-.704 7.817zm-.583 8.547c-8.815-1.197-18.378-1.56-27.161.16.175-2.623.33-5.245.437-7.868 9.042.726 18.128.108 27.167 1.12a226.19 226.19 0 0 0-.443 6.588zM98 69.063c-.002-.036-.001-.07-.006-.105-.015-.487-.293-.948-.895-.943-.241.001-.484.015-.727.018.006-2.927.005-5.854.003-8.779-.001-.615-.466-1.13-1.024-1.13-8.836.009-17.858-.4-26.638.899-.105.015-.19.063-.278.104.008-.106.008-.211.016-.317.052-.676-.959-.826-1.07-.16-.602 3.588-.86 7.201-.941 10.827l-.148.008c-.548.023-.55.924 0 .94l.123.001a131.731 131.731 0 0 0 0 3.682c-.841-3.584-2.671-7.223-5.667-10.79-7.59-9.034-20.438-10.388-28.965-3.118.017-.546.047-1.091.07-1.637a.546.546 0 0 0 .026-.035c.026-.032.054-.061.076-.098a.93.93 0 0 0 .074-.178c.018-.054.038-.104.047-.16.01-.06.008-.116.008-.176 0-.06.002-.116-.008-.175-.009-.056-.03-.106-.047-.16a.937.937 0 0 0-.074-.179 1.015 1.015 0 0 0-.048-.072c.093-1.887.215-3.772.34-5.656 9.118-.975 18.06.559 27.154.387-.119 2.99-.18 5.98-.081 8.975.043 1.318 1.758 1.298 1.839 0 1.21-19.506 3.88-39.293 2.57-58.85-.047-.697-.455-1.105-1.068-1.18-6.908-.84-13.813-.23-20.733-.892-2.592-.247-5.957-.284-7.973 1.943-5.345 5.904-4.01 18.847-3.27 27.523-8.46-.26-16.882.08-25.335.498-.543.026-.976.475-.985 1.088-.085 5.779-.298 11.58-.559 17.385-.5-.102-.669.694-.184.902.045.02.093.027.138.046-.137 2.945-.263 5.89-.431 8.833-.159.05-.33.084-.487.136-.332.11-.284.745.084.693.12-.017.239-.026.358-.042a953.22 953.22 0 0 1-1.043 15.873c-.176-.018-.35-.018-.526-.04-.364-.045-.425.595-.084.692.184.053.37.073.553.12-.088 1.174-.165 2.354-.257 3.525-.471 6.001-3.834 18.698-.4 24.04.01.015.026.013.037.028-.009.314.173.638.555.679 4.42.477 31.564 5.296 29.608-5.441 4.979 4.602 11.855 6.424 19.506 2.82a.947.947 0 0 0 .672-.112c7.92-4.61 13.495-11.484 14.774-19.146.114 2.509.235 5.019.327 7.526-.302.114-.297.595.027.682.092 2.702.14 5.4.089 8.094-.125 6.55 1.979 11.147 8.41 11.663 5.792.466 18.162 3.51 19.902-5.37.798-4.073.5-9.084.483-13.59.012-.026.037-.038.047-.067.04-.13.08-.26.122-.391.072-.233 0-.576-.168-.755.007-.66.022-1.306.052-1.933.288-5.958.37-11.929.395-17.898.246 0 .491-.009.737-.006.602.004.88-.457.894-.944.003-.036.002-.069.004-.105z"/></g></g><g><path fill="none" stroke="#ffc300" stroke-miterlimit="50" stroke-width="2" d="M45 97c8.837 0 16-7.611 16-17s-7.163-17-16-17-16 7.611-16 17 7.163 17 16 17z"/></g></g></svg>