<svg id="Layer_1" data-name="Layer 1" xmlns="http://www.w3.org/2000/svg" viewBox="0 0 27.86 45.41"><title>logo 2</title><path d="M27.91,47.56a.33.33,0,0,1-.23.24,14,14,0,0,1-2.87.33c-7.47,0-13.53-6.36-13.54-14.23a15.24,15.24,0,0,1,.3-3h0a.3.3,0,0,1,.37-.25.26.26,0,0,1,.16.09L27.83,47.23A.34.34,0,0,1,27.91,47.56Zm6.49-3.43c-.23.22-.47.45-.77.71a.31.31,0,0,1-.43,0l-18-18.22a13.87,13.87,0,0,1,0-19.43c.23-.22.47-.45.77-.71a.31.31,0,0,1,.43,0l18,18.21a13.86,13.86,0,0,1,0,19.44ZM38.72,20.9a.34.34,0,0,1-.24.26l-.1,0a.36.36,0,0,1-.25-.11L20.94,3.64a.35.35,0,0,1-.09-.34.36.36,0,0,1,.26-.25,14.64,14.64,0,0,1,13.6,4.06,15.09,15.09,0,0,1,4,13.79Z" transform="translate(-11.2 -2.71)"/></svg>