<svg xmlns="http://www.w3.org/2000/svg" width="29" height="24" viewBox="0 0 29 24"><g><g><g><path d="M26.85 5.192c-.227-.218-.515-.411-.698-.579-.578-.528-1.144-1.069-1.722-1.596-.218-.2-.948-1.03-1.491-1.207a11.7 11.7 0 0 1 1.314-.649c.435.713 1.07 1.3 1.686 1.847.344.307.694.608 1.025.93.106.103.215.21.3.332.078.113.22.39.176.151.005.028.018.05.027.074-.202.237-.411.464-.616.697zm-2.764-.476c-.765-.722-1.498-1.486-2.283-2.186.27-.188.546-.364.827-.535.026.041.589.687.624.72.435.43.852.879 1.27 1.324.438.465.882.925 1.33 1.38.128.13.265.291.417.43-.127.14-.25.286-.379.427-.466-.589-1.277-1.06-1.806-1.56zm.531 2.944c-.675-.423-1.292-1.149-1.819-1.662-.81-.79-1.6-1.629-2.526-2.28.384-.336.784-.648 1.191-.947.69.831 1.414 1.639 2.154 2.421.459.487 1.088 1.317 1.762 1.641-.253.276-.506.554-.762.827zm-1.199 1.277c-.534-.656-1.311-1.195-1.92-1.735-.848-.75-1.684-1.51-2.51-2.285.298-.298.603-.585.912-.866 1.064.89 1.974 1.966 2.93 2.97.34.355.767.89 1.256 1.206-.224.235-.443.476-.668.71zm-.803.833c-.01-.022-.015-.045-.03-.064-.227-.297-.607-.424-.92-.61-.507-.303-.974-.674-1.425-1.056-.782-.663-1.502-1.428-2.042-2.31.183-.194.369-.385.555-.575.772.827 1.571 1.627 2.364 2.434.576.586 1.146 1.333 1.81 1.859l-.312.322zm-1.327 1.355c-.619-.651-1.37-1.237-2.006-1.84-.732-.694-1.48-1.4-2.326-1.95a.19.19 0 0 0-.213 0c.345-.391.693-.777 1.043-1.159.48.906 1.24 1.688 1.961 2.369.554.522 1.585 1.6 2.46 1.649-.306.31-.61.623-.92.931zm-.887.891c-.562-.686-1.334-1.22-2.02-1.77-.804-.642-1.617-1.287-2.484-1.84a.2.2 0 0 0-.067-.025l.82-.939c-.037.079-.036.173.04.243.812.747 1.632 1.47 2.41 2.256.54.545 1.068 1.193 1.668 1.707l-.367.368zm-1.52 1.488c-.637-.56-1.344-1.07-1.962-1.646-.77-.717-1.542-1.41-2.43-1.964.358-.396.713-.798 1.067-1.202.012.03.029.058.058.083.769.645 1.55 1.272 2.304 1.935.655.576 1.286 1.281 2.033 1.74-.357.351-.711.705-1.07 1.054zm-1.185 1.156c-.12-.25-.423-.393-.638-.547a21.8 21.8 0 0 1-1.383-1.11 75.524 75.524 0 0 1-2.235-1.988c.243-.25.484-.506.723-.765.95.634 1.767 1.43 2.56 2.255.485.502.996 1.112 1.581 1.561-.203.198-.404.397-.608.594zm-1.42 1.355c-.158-.171-.35-.284-.56-.449a17.773 17.773 0 0 1-1.236-1.093c-.78-.736-1.536-1.493-2.348-2.191.372-.334.732-.687 1.088-1.045.503.852 1.278 1.559 1.988 2.236.371.355 1.296 1.464 1.993 1.654l-.925.888zm-1.595 1.537c-.619-.757-1.441-1.386-2.165-2.034-.692-.62-1.37-1.258-2.064-1.876.436-.309.853-.648 1.263-.998.79.745 1.55 1.522 2.319 2.288.45.448 1.07 1.268 1.718 1.594l-1.071 1.026zm-1.323 1.268c-1.113-1.162-2.455-2.162-3.58-3.314a30.979 30.979 0 0 1-3.776-4.666c.025-.026.052-.049.077-.075.025-.026.038-.056.058-.084.02.057.046.112.086.16.49.59 1.035 1.135 1.546 1.707.272.305.552.604.827.907.225.248.45.587.783.684.24.07.462-.015.608-.175.011-.006.023-.006.035-.014.002 0 .003-.003.005-.004.567.624 1.178 1.209 1.774 1.803.767.764 1.495 1.641 2.331 2.33l-.774.741zm-3.07 2.973C9.253 20.369 7.58 19.267 6.28 18.1a80.842 80.842 0 0 1-4.218-4.042c.361-.295.734-.579 1.108-.86 1.422 1.606 2.742 3.312 4.11 4.966.599.723 2.263 3.346 3.452 3.02.234-.063.248-.363.064-.49-1.32-.907-2.432-2.404-3.51-3.578-1.266-1.379-2.448-2.858-3.79-4.164a73.3 73.3 0 0 0 .62-.47c1.148 1.4 2.466 2.69 3.722 3.987 1.102 1.139 2.181 2.593 3.492 3.481.303.205.704-.202.502-.508-.877-1.328-2.312-2.422-3.435-3.54-1.134-1.127-2.264-2.3-3.468-3.365.025-.018.035-.058 0-.08-.08-.05-.21-.129-.338-.212-.028-.024-.055-.05-.083-.073.39-.31.763-.636 1.124-.976.878 1.617 2.097 3.07 3.283 4.451 1.067 1.243 2.356 2.861 3.81 3.774-.816.786-1.63 1.575-2.437 2.372zm-.98.975a.704.704 0 0 0-.177-.098c-.81-.295-1.541-1.13-2.165-1.698-1.019-.93-1.984-1.92-2.928-2.928-.245-.26-1.81-2.293-2.833-3.334a.484.484 0 0 0 .226-.11c.057-.053.117-.1.176-.152 1.065 1.433 2.376 2.68 3.664 3.9 1.38 1.307 2.892 2.963 4.529 3.936-.163.162-.329.321-.491.484zM28.466 3.81c-.134-.449-.577-.84-.914-1.146-.813-.739-1.724-1.409-2.367-2.316a.62.62 0 0 0-.775-.225c-2.13-.872-5.415 3.164-6.612 4.365-2.708 2.718-5.115 5.81-7.91 8.437-.125-.142-.27-.273-.38-.393-.305-.33-.608-.661-.925-.98-.54-.54-1.16-1.262-1.9-1.509a.397.397 0 0 0-.436.098.828.828 0 0 0-.064-.187c-.088-.18-.214-.245-.394-.308-.215-.075-.49.009-.643.172-1.399 1.492-3.338 2.448-4.52 4.15a.507.507 0 0 0-.08.18c-.08-.043-.149-.064-.187-.038l-.114.078c-.18.123-.29.338-.225.56.579 1.947 2.549 3.674 3.894 5.077 1.34 1.397 2.999 3.448 4.869 4.133.256.094.464.024.605-.122.19.078.42.067.623-.101 6.74-5.601 13.25-11.958 18.824-18.753.376-.459.054-1.06-.369-1.172z"/></g></g></g></svg>