<svg xmlns="http://www.w3.org/2000/svg" width="132" height="133" viewBox="0 0 132 133"><defs><clipPath id="oqfea"><path d="M27.18 96.06h25.63v36.944H27.18z"/></clipPath><clipPath id="oqfeb"><path d="M0 .23h94.818v104.668H0z"/></clipPath></defs><g><g><g><path d="M88 87.119a12.876 12.876 0 0 1-.5 3.494c-.333 1.148-.85 2.281-1.61 3.279-.755.993-1.757 1.838-2.919 2.375a7.842 7.842 0 0 1-3.722.722c-1.269-.065-2.5-.457-3.581-1.05-1.086-.592-2.02-1.389-2.82-2.28a11.226 11.226 0 0 1-2.821-6.54c-.086-1.228.03-2.505.434-3.71.39-1.209 1.06-2.33 1.913-3.29a9.42 9.42 0 0 1 3.087-2.302A8.749 8.749 0 0 1 79.249 77a8.84 8.84 0 0 1 3.757.89c1.162.569 2.152 1.436 2.905 2.437.756 1.004 1.272 2.141 1.604 3.292.333 1.153.487 2.328.485 3.5m-.21 0a7.32 7.32 0 0 0-.803-3.289c-.514-1.003-1.257-1.854-2.089-2.525a9.516 9.516 0 0 0-2.704-1.521 8.064 8.064 0 0 0-2.945-.51 8.23 8.23 0 0 0-2.912.584 7.802 7.802 0 0 0-2.523 1.654c-.735.715-1.324 1.583-1.78 2.528-.444.949-.76 1.989-.852 3.079-.09 1.086.024 2.212.396 3.262a7.386 7.386 0 0 0 1.762 2.804 6.947 6.947 0 0 0 2.79 1.677c1.027.33 2.091.414 3.12.351 2.057-.144 3.997-.909 5.669-2.26.828-.678 1.57-1.533 2.084-2.539a7.212 7.212 0 0 0 .786-3.295"/></g><g><path d="M114 99.119a12.876 12.876 0 0 1-.5 3.494c-.333 1.148-.85 2.282-1.61 3.279-.755.993-1.757 1.838-2.919 2.375a7.843 7.843 0 0 1-3.722.722c-1.269-.065-2.5-.457-3.581-1.05-1.086-.592-2.02-1.389-2.82-2.28a11.227 11.227 0 0 1-2.821-6.54c-.086-1.228.03-2.505.434-3.71.39-1.209 1.06-2.33 1.913-3.289a9.413 9.413 0 0 1 3.087-2.303 8.745 8.745 0 0 1 3.788-.817c1.3.02 2.599.32 3.757.89 1.162.569 2.152 1.436 2.905 2.437.756 1.004 1.272 2.141 1.604 3.292.333 1.153.487 2.328.485 3.5m-.21 0a7.318 7.318 0 0 0-.803-3.288c-.514-1.004-1.257-1.855-2.089-2.526a9.52 9.52 0 0 0-2.705-1.521 8.063 8.063 0 0 0-2.944-.51 8.236 8.236 0 0 0-2.912.584 7.802 7.802 0 0 0-2.523 1.654c-.735.715-1.324 1.583-1.78 2.528-.444.949-.76 1.989-.852 3.079-.09 1.086.024 2.212.396 3.262a7.386 7.386 0 0 0 1.762 2.804 6.95 6.95 0 0 0 2.79 1.677c1.027.33 2.091.414 3.12.351 2.057-.143 3.997-.909 5.669-2.26.828-.678 1.57-1.533 2.084-2.539a7.211 7.211 0 0 0 .786-3.295"/></g><g><path d="M99.358 71.92c-4.57 13.828-16.025 24.84-17.352 39.805-.15 1.705 2.514 1.695 2.664 0 .637-7.19 4.007-13.684 7.547-19.844 3.584-6.24 7.438-12.38 9.71-19.253.538-1.63-2.034-2.328-2.57-.707"/></g><g><path fill="#ffc300" d="M125.049 37.795c1.002.286 1.238 1.508.585 2.258-1.913 2.194-4.178 4.036-6.067 6.252-.872 1.023-1.65 2.164-2.197 3.404-.208.474-.649 1.587-.794 2.547a21.8 21.8 0 0 1 .526 2.004c.259 1.228-1.284 2.392-2.216 1.314-.692-.8-.962-1.797-.962-2.86-1.992-5.896-6.661-10.67-12.57-12.548a1.289 1.289 0 0 1-.699-.51c-.865-.57-.976-2.155.297-2.434 4.743-1.039 6.582-6.027 7.927-10.215.285-.888 1.536-1.423 2.215-.597 3.83 4.656 7.992 9.682 13.955 11.385m-8.894 8.626c1.701-2.567 4.03-4.56 6.164-6.733-4.709-1.967-8.363-5.739-11.677-9.66-1.26 3.38-3.018 6.712-5.96 8.563 4.39 2.065 8.041 5.581 10.323 9.897a15.81 15.81 0 0 1 1.15-2.067"/></g><g><g/><g clip-path="url(#oqfea)"><path fill="#ffc300" d="M51.149 110.353c-3.341 1.24-6.333-2.377-8.262-4.636-2.34-2.739-4.287-5.783-5.888-9.014-.57-1.15-2.655-.656-2.497.681.397 3.367-.625 6.624-2.99 9.06-1.206 1.243.687 3.154 1.896 1.91a13.704 13.704 0 0 0 3.49-6.324 45.796 45.796 0 0 0 5.034 6.662c1.767 1.937 4.109 4.03 6.725 4.528-2.316 2.307-5.614 3.67-7.777 6.166a13.714 13.714 0 0 0-2.275 3.673c-.476-1.984-.99-3.955-1.608-5.88a14.198 14.198 0 0 0-2.986-5.219c-1.369-1.537-2.993-2.846-4.249-4.485-1.039-1.357-3.368-.014-2.314 1.363 2.486 3.246 5.892 5.42 7.107 9.523 1.329 4.49 2.265 9.131 3.376 13.682.427 1.683 2.997.971 2.584-.719-1.065-4.198.367-8.586 3.634-11.379 2.926-2.501 6.632-4.036 8.513-7.608.504-.956-.35-2.415-1.513-1.984"/></g></g><g><g/><g clip-path="url(#oqfeb)"><path d="M92.873 30.938c1.255-.5 2.69 1.13 1.501 2.142-.056.048-.115.091-.172.137-.155.735-.916 1.325-1.637 1.125-.895.533-1.837 1.007-2.726 1.497-1.595.88-3.21 1.721-4.846 2.525a122.598 122.598 0 0 1-10.117 4.4 1.49 1.49 0 0 1-.281.078 486.395 486.395 0 0 1-.833 18.466c-.11 1.714-2.81 1.721-2.7 0a486.977 486.977 0 0 0 .601-50.986c-3.206-3.014-6.99-6.181-11.396-6.562.058 2.825-1.183 5.553-3.022 7.782-2.298 2.785-5.478 5.402-9.224 5.658-7.041.48-13.92-5.635-14.029-12.588-5.21.587-9.988 3.178-13.718 6.791a135.197 135.197 0 0 0-.012 36.478 447.68 447.68 0 0 1 43.105-1.82c.802.005 1.232.578 1.295 1.192.033.118.053.246.053.388v17.651c0 1.727-2.699 1.724-2.699 0v-6.544c1.62-.462 2.506-1.069 2.658-1.822.183-.91-.703-2.03-2.658-3.364v-4.825a447.714 447.714 0 0 0-51.629 2.828c.076 2.01.17 4.02.271 6.03 8.323.756 15.685 1.322 22.085 1.697-7.284.94-14.58 1.588-21.94.994a466.718 466.718 0 0 0 2.93 32.227c5.189.179 10.379-.095 15.513-.878.067-2.341.212-4.677.467-6.995.426-3.87 2-8.558 6.376-9.496 1.837-.393 3.553.08 4.487 1.778 1.022 1.86 1.573 4.077 1.945 6.147.53 2.95.65 5.934.725 8.922 2.874.057 5.747.023 8.62-.115 1.738-.083 1.728 2.596 0 2.678-2.85.137-5.702.172-8.554.117.019.693.041 1.385.072 2.077.052 1.175.127 2.35.252 3.52.045.423-.005 1.397.23 1.73.1.141.056.15.04.149.014.004.061.02.18.077.251.119.714-.013 1.003-.02l7.791-.193c1.74-.044 1.734 2.635 0 2.678-2.776.07-5.553.165-8.33.207-.94.014-1.961-.047-2.648-.784-.71-.76-.731-1.947-.855-2.914-.53-4.136-.391-8.311-.61-12.467-.111-2.118-.316-4.231-.795-6.302-.286-1.24-.812-4.796-2.428-4.751-1.936.053-3.415 1.919-4.045 3.56-.813 2.115-.878 4.468-1.017 6.701a123.933 123.933 0 0 0-.063 14.065c.04.776-.652 1.277-1.35 1.34-5.767.517-11.556.602-17.336.253-1.182-.072-1.558-1.345-1.124-2.111a1.415 1.415 0 0 1-.072-.29A474.522 474.522 0 0 1 8.04 59.201a1.566 1.566 0 0 1-.048-.908 465.6 465.6 0 0 1-.345-7.789c-.018-.514.21-.873.539-1.08a1.4 1.4 0 0 1 .827-.383c2.858-.332 5.72-.633 8.585-.91a140.05 140.05 0 0 1-.81-7.685c-4.973-1.37-9.639-4.1-14.83-4.56-.812.401-1.945-.303-1.947-1.268-.057-.475.105-.971.488-1.245A103.415 103.415 0 0 1 18.104 9.455c.234-.238.486-.359.734-.398C23.248 4.95 28.908 2.222 35 1.845c.054-.004.108-.004.16-.002.811-.225 1.756.174 1.618 1.21-.803 6.057 4.698 11.585 10.783 11.487 3.053-.049 5.6-2.37 7.487-4.552 1.502-1.736 2.545-3.87 2.513-6.102l-.09.015c-1.7.325-2.422-2.257-.719-2.582.143-.028.285-.05.427-.073.2-1.151 2.132-1.483 2.63-.155 4.917.204 9.102 3.152 12.785 6.452.371-.084.772.026 1.096.44a450.31 450.31 0 0 0 19.183 22.955m-30.857 27.81c-4.383 1.249-14.141 1.43-29.273.544 9.736-1.256 19.452-3.03 29.273-3.052zM16.591 37.592c-.44-7.766-.233-15.548.624-23.297a100.856 100.856 0 0 0-13.669 19.1c4.525.742 8.659 2.866 13.045 4.197M29.21 94.325a87.947 87.947 0 0 1-15.129.876c.233 1.759.475 3.517.729 5.274.026.18.018.348-.015.504 4.852.234 9.708.164 14.55-.21-.094-2.14-.144-4.292-.135-6.444m59.058-60.679c.737-.404 1.555-.794 2.34-1.225A451.175 451.175 0 0 1 74.475 13.29a486.79 486.79 0 0 1 .186 26.692 114.718 114.718 0 0 0 8.975-3.93 116.018 116.018 0 0 0 4.632-2.406"/></g></g><g><path fill="none" stroke="#000" stroke-miterlimit="50" stroke-width="3" d="M130 94c0 20.434-17.237 37-38.5 37S53 114.434 53 94s17.237-37 38.5-37S130 73.566 130 94z"/></g></g></g></svg>