<svg xmlns="http://www.w3.org/2000/svg" width="21" height="29" viewBox="0 0 21 29"><g><g><path fill="#000" d="M12.892 28.657a.233.233 0 0 1-.183.143c-.734.133-1.485.2-2.23.2-2.796 0-5.425-.92-7.404-2.59C1.092 24.737 0 22.513 0 20.147c0-.62.08-1.248.238-1.87a.225.225 0 0 1 .17-.154.274.274 0 0 1 .243.052l12.18 10.277a.185.185 0 0 1 .06.205m5.036-2.247c-.175.148-.364.294-.593.46a.276.276 0 0 1-.16.05.268.268 0 0 1-.173-.06L3.076 15.114C1.096 13.445.005 11.221.005 8.853c0-2.37 1.09-4.593 3.07-6.263.173-.145.362-.292.594-.46a.281.281 0 0 1 .333.01l13.925 11.745c1.98 1.67 3.071 3.894 3.071 6.262 0 2.369-1.09 4.593-3.07 6.263m2.831-15.683c-.019.074-.084.133-.17.154a.277.277 0 0 1-.243-.052L8.162.55a.186.186 0 0 1-.061-.205A.233.233 0 0 1 8.284.2c3.507-.634 7.11.26 9.635 2.39 2.538 2.142 3.6 5.183 2.84 8.137"/></g></g></svg>