<svg xmlns="http://www.w3.org/2000/svg" width="25" height="27" viewBox="0 0 25 27"><g><g><path fill="#1a1919" d="M1.434 21.422a.986.986 0 0 1-.987-.988v-4.201c0-.257.106-.507.29-.698L15.704.5a.985.985 0 0 1 1.395 0l4.223 4.228a.987.987 0 0 1 0 1.396L6.33 21.132a.985.985 0 0 1-.697.29zm13.355-17.2l2.823 2.824 1.618-1.62-2.829-2.831zM2.421 19.446h2.803L16.21 8.442l-2.816-2.825L2.42 16.641zm21.546 4.965c.546 0 .987.441.987.988 0 .546-.44.988-.987.988H1.382a.986.986 0 0 1-.987-.988c0-.547.44-.988.987-.988h22.585"/></g></g></svg>