<svg xmlns="http://www.w3.org/2000/svg" width="33" height="33" viewBox="0 0 33 33"><g><g><path fill="#1a1919" d="M16.43.588C25.3.596 32.51 7.84 32.51 16.733c0 8.91-7.22 16.154-16.094 16.154C7.54 32.887.322 25.643.322 16.733.322 7.831 7.542.588 16.416.588h.015zm2.814 2.72c1.608 2.35 3.616 6.44 3.783 12.218h6.94C29.44 9.481 25.014 4.54 19.243 3.308zm1.28 14.633h-8.125c.377 6.294 2.71 10.173 4.004 11.864 1.32-1.747 3.737-5.74 4.12-11.864zm.037-2.415c-.198-6.222-2.777-10.222-4.15-11.912-1.352 1.666-3.883 5.618-4.053 11.912zm-17.703 0h7.036c.143-5.843 2.094-9.884 3.683-12.21-5.77 1.24-10.194 6.174-10.72 12.21zm10.8 14.657c-1.514-2.302-3.41-6.318-3.733-12.242H2.858c.528 6.077 4.99 11.035 10.8 12.242zM29.967 17.94H23c-.327 5.827-2.31 9.916-3.855 12.25 5.821-1.2 10.293-6.157 10.822-12.25z"/></g></g></svg>