<svg xmlns="http://www.w3.org/2000/svg" width="33" height="33" viewBox="0 0 33 33"><g><g><g><path d="M30.977 29.426c0 .86-.692 1.55-1.55 1.55H3.583c-.86 0-1.55-.69-1.55-1.55V3.584c0-.86.69-1.55 1.55-1.55h25.842c.86 0 1.55.69 1.55 1.55zM29.417 1H3.583A2.583 2.583 0 0 0 1 3.583v25.834A2.583 2.583 0 0 0 3.583 32h25.834A2.583 2.583 0 0 0 32 29.417V3.583A2.583 2.583 0 0 0 29.417 1z"/><path fill="none" stroke="#000" stroke-miterlimit="50" d="M30.977 29.426c0 .86-.692 1.55-1.55 1.55H3.583c-.86 0-1.55-.69-1.55-1.55V3.584c0-.86.69-1.55 1.55-1.55h25.842c.86 0 1.55.69 1.55 1.55zM29.417 1H3.583A2.583 2.583 0 0 0 1 3.583v25.834A2.583 2.583 0 0 0 3.583 32h25.834A2.583 2.583 0 0 0 32 29.417V3.583A2.583 2.583 0 0 0 29.417 1z"/></g><g><path d="M10 27.938H6V13.063h4zM10.5 12h-5c-.275 0-.5.24-.5.531V28.47c0 .292.225.531.5.531h5c.275 0 .5-.24.5-.531V12.53c0-.292-.225-.531-.5-.531z"/><path fill="none" stroke="#000" stroke-miterlimit="50" d="M10 27.938H6V13.063h4zM10.5 12h-5c-.275 0-.5.24-.5.531V28.47c0 .292.225.531.5.531h5c.275 0 .5-.24.5-.531V12.53c0-.292-.225-.531-.5-.531z"/></g><g><path d="M19 27.958h-4V5.042h4zM19.5 4h-5c-.275 0-.5.234-.5.52v23.96c0 .286.225.52.5.52h5c.275 0 .5-.234.5-.52V4.52a.512.512 0 0 0-.5-.52z"/><path fill="none" stroke="#000" stroke-miterlimit="50" d="M19 27.958h-4V5.042h4zM19.5 4h-5c-.275 0-.5.234-.5.52v23.96c0 .286.225.52.5.52h5c.275 0 .5-.234.5-.52V4.52a.512.512 0 0 0-.5-.52z"/></g><g><path d="M27 28h-4v-9h4zm.5-10h-5c-.275 0-.5.225-.5.5v10c0 .275.225.5.5.5h5c.275 0 .5-.225.5-.5v-10c0-.275-.225-.5-.5-.5z"/><path fill="none" stroke="#000" stroke-miterlimit="50" d="M27 28h-4v-9h4zm.5-10h-5c-.275 0-.5.225-.5.5v10c0 .275.225.5.5.5h5c.275 0 .5-.225.5-.5v-10c0-.275-.225-.5-.5-.5z"/></g></g></g></svg>