<svg xmlns="http://www.w3.org/2000/svg" width="28" height="29" viewBox="0 0 28 29"><g><g><path fill="#1a1919" d="M14.275.167c7.536 0 13.673 6.326 13.673 14.101 0 7.775-6.137 14.1-13.673 14.1-7.543 0-13.673-6.325-13.673-14.1C.602 6.493 6.732.167 14.275.167zm11.564 14.101c0-6.576-5.188-11.926-11.564-11.926S2.711 7.692 2.711 14.268c0 6.576 5.188 11.925 11.564 11.925s11.564-5.35 11.564-11.925zm-11.416-1.54c3.543.186 5.314 2.543 5.209 4.772-.099 2.165-1.758 3.806-4.085 4.17v1.185c0 .6-.47 1.087-1.054 1.087-.584 0-1.055-.486-1.055-1.087v-1.193c-2.537-.388-4.225-2.107-4.225-4.443 0-.6.471-1.087 1.055-1.087.583 0 1.054.486 1.054 1.087 0 1.625 1.624 2.352 3.241 2.352 1.66 0 2.91-.914 2.967-2.172.063-1.37-1.273-2.397-3.248-2.501-2.974-.257-4.76-1.811-4.808-4.16a4.062 4.062 0 0 1 1.138-2.893c.717-.755 1.716-1.26 2.826-1.457v-.994c0-.6.471-1.087 1.055-1.087.583 0 1.054.487 1.054 1.087v.989c2.419.42 3.684 2.27 3.684 4.1 0 .6-.47 1.087-1.054 1.087-.584 0-1.055-.486-1.055-1.087 0-.97-.822-2.014-2.636-2.014-.963 0-1.828.327-2.37.897-.252.267-.548.713-.533 1.326.028 1.483 1.56 1.925 2.84 2.036"/></g></g></svg>