<svg xmlns="http://www.w3.org/2000/svg" width="32" height="33" viewBox="0 0 32 33"><g><g><path fill="#1a1919" d="M15.744.19c8.576 0 15.56 7.199 15.56 16.046s-6.984 16.045-15.56 16.045C7.16 32.28.184 25.083.184 16.236.184 7.389 7.16.19 15.744.19zm13.16 16.046c0-7.484-5.904-13.571-13.16-13.571S2.584 8.752 2.584 16.236c0 7.483 5.904 13.57 13.16 13.57s13.16-6.087 13.16-13.57zm-12.992-1.752c4.032.212 6.048 2.893 5.928 5.43-.112 2.463-2 4.33-4.648 4.744v1.35c0 .683-.536 1.237-1.2 1.237-.664 0-1.2-.554-1.2-1.238V24.65c-2.888-.442-4.808-2.397-4.808-5.055 0-.684.536-1.238 1.2-1.238.664 0 1.2.554 1.2 1.238 0 1.848 1.848 2.676 3.688 2.676 1.888 0 3.312-1.04 3.376-2.473.072-1.557-1.448-2.727-3.696-2.845-3.384-.292-5.416-2.06-5.472-4.734a4.622 4.622 0 0 1 1.296-3.292c.816-.86 1.952-1.434 3.216-1.658V6.138c0-.683.536-1.237 1.2-1.237.664 0 1.2.554 1.2 1.237v1.125c2.752.478 4.192 2.583 4.192 4.666 0 .684-.536 1.237-1.2 1.237-.664 0-1.2-.553-1.2-1.237 0-1.104-.936-2.292-3-2.292-1.096 0-2.08.372-2.696 1.021-.288.304-.624.811-.608 1.508.032 1.688 1.776 2.191 3.232 2.318"/></g></g></svg>