<svg xmlns="http://www.w3.org/2000/svg" width="32" height="32" viewBox="0 0 32 32"><g><g><path d="M7.2 30.2H1.8v-1.8h5.4zm0-5.4v1.8H1.8v-1.8zm.9-1.8H.9a.9.9 0 0 0-.9.9v7.2a.9.9 0 0 0 .9.9h7.2a.9.9 0 0 0 .9-.9v-7.2a.9.9 0 0 0-.9-.9z"/></g><g><path d="M18.2 30.133h-5.4v-1.847h5.4zm0-9.276v1.847h-5.4v-1.847zm-5.4 3.714h5.4v1.858h-5.4zM19.1 19h-7.2c-.497 0-.9.416-.9.929V31.07c0 .513.403.929.9.929h7.2c.497 0 .9-.416.9-.929V19.93c0-.513-.403-.929-.9-.929z"/></g><g><path d="M30.2 30.182h-5.4v-1.818h5.4zm0-16.364v1.818h-5.4v-1.818zm-5.4 10.91h5.4v1.817h-5.4zm5.4-5.455h-5.4v-1.818h5.4zm-5.4 3.636v-1.818h5.4v1.818zM31.1 12h-7.2c-.497 0-.9.407-.9.91v18.18c0 .503.403.91.9.91h7.2c.497 0 .9-.407.9-.91V12.91a.905.905 0 0 0-.9-.91z"/></g><g><path d="M3.962 17a.969.969 0 0 0 .68-.276l7.012-6.862 3.166 3.098a.976.976 0 0 0 1.362-.001l9.895-9.737v1.483c0 .52.43.94.961.94a.951.951 0 0 0 .962-.94V.94.94A.95.95 0 0 0 27.066 0L27.038 0h-3.846a.951.951 0 0 0-.961.941c0 .52.43.94.961.94h1.534l-9.228 9.082-3.164-3.097a.976.976 0 0 0-1.36 0l-7.692 7.528a.926.926 0 0 0 0 1.33.969.969 0 0 0 .68.276z"/></g></g></svg>