<svg xmlns="http://www.w3.org/2000/svg" width="31" height="33" viewBox="0 0 31 33"><g><g><path fill="#1a1919" d="M1.778 26.183c-.677 0-1.223-.54-1.223-1.208V19.84c0-.314.13-.62.359-.853L19.473.612a1.23 1.23 0 0 1 1.73 0l5.237 5.167c.228.225.359.531.359.853 0 .314-.13.628-.36.853L7.849 25.83a1.23 1.23 0 0 1-.865.354zm16.56-21.024l3.5 3.453 2.008-1.98-3.508-3.46zM3.003 23.77h3.475l13.624-13.45-3.492-3.453L3.002 20.339zm26.717 6.068c.677 0 1.224.54 1.224 1.207 0 .668-.547 1.207-1.224 1.207H1.713c-.677 0-1.224-.539-1.224-1.207s.547-1.207 1.224-1.207H29.72"/></g></g></svg>