<svg xmlns="http://www.w3.org/2000/svg" width="29" height="19" viewBox="0 0 29 19"><g><g><path d="M14.505 17.024c-5.81 0-10.842-5.674-12.331-7.53 1.487-1.857 6.509-7.528 12.33-7.528 5.81 0 10.842 5.673 12.332 7.53-1.488 1.856-6.509 7.529-12.331 7.529zm14.31-8.104C28.558 8.556 22.385 0 14.5 0 6.616 0 .443 8.556.184 8.92a1.006 1.006 0 0 0 0 1.16C.443 10.444 6.616 19 14.5 19s14.057-8.556 14.316-8.92a1.005 1.005 0 0 0 0-1.16z"/></g><g><path d="M14.5 13c-1.93 0-3.5-1.57-3.5-3.5S12.57 6 14.5 6 18 7.57 18 9.5 16.43 13 14.5 13zm0-9A5.506 5.506 0 0 0 9 9.5c0 3.033 2.467 5.5 5.5 5.5S20 12.533 20 9.5 17.533 4 14.5 4z"/></g></g></svg>