<svg xmlns="http://www.w3.org/2000/svg" width="37" height="29" viewBox="0 0 37 29"><g><g><path fill="#1a1919" d="M31.7 12.046c3.14 0 4.835 2.625 4.835 5.094v5.197c0 .618-.497 1.116-1.11 1.116h-9.819v4.41c0 .616-.496 1.115-1.11 1.115H1.31c-.614 0-1.11-.499-1.11-1.116v-6.29c0-1.89.758-3.77 2.03-5.02 1.046-1.033 2.371-1.598 3.759-1.554h.006c.545 0 2.294-.007 4.41-.022 2.052-.008 4.448-.022 6.451-.03.813-1.755 2.366-2.855 4.107-2.855h.082c.398 0 1.691-.008 3.275-.015 2.503-.015 5.728-.03 7.38-.03zm-8.314 9.131c0-1.925-1.152-4-3.683-4-2.08 0-6.1.015-9.287.03-2.132.015-3.894.007-4.45.022-1.005-.052-1.746.483-2.182.915-.854.84-1.364 2.126-1.364 3.428v5.175h20.966zm10.929-4.037c0-.99-.547-2.863-2.616-2.863-1.65 0-4.869.015-7.368.03-1.589.007-2.887.015-3.308.015-.61 0-1.107.26-1.492.624h.172c3.835 0 5.903 3.205 5.903 6.231v.045h8.709zm-7.9-5.644c-2.971 0-5.388-2.424-5.388-5.413 0-2.982 2.417-5.414 5.387-5.414 2.971 0 5.388 2.432 5.388 5.414 0 2.989-2.417 5.413-5.388 5.413zm-3.168-5.413a3.179 3.179 0 0 0 3.167 3.182 3.179 3.179 0 0 0 3.168-3.182A3.179 3.179 0 0 0 26.414 2.9a3.179 3.179 0 0 0-3.167 3.183zM12.9 13.593c-3.645 0-6.61-2.982-6.61-6.648 0-3.658 2.965-6.64 6.61-6.64 3.644 0 6.61 2.982 6.61 6.64 0 3.666-2.966 6.648-6.61 6.648zM8.51 6.945c0 2.44 1.969 4.417 4.39 4.417 2.42 0 4.39-1.978 4.39-4.417 0-2.431-1.97-4.41-4.39-4.41-2.421 0-4.39 1.979-4.39 4.41z"/></g></g></svg>