<svg xmlns="http://www.w3.org/2000/svg" width="37" height="31" viewBox="0 0 37 31"><g><g><path fill="#1a1919" d="M35.963 5.215c.235.329.322.757.237 1.158L33.228 20.68c-.129.62-.627 1.057-1.202 1.057H11.497c-.561 0-1.051-.419-1.194-1.02L6.93 6.41c-.005-.019-.01-.037-.014-.064L6.13 3.027H1.266c-.681 0-1.233-.61-1.233-1.368C.033.903.585.292 1.266.292h5.817c.561 0 1.051.42 1.193 1.02l.79 3.356L35 4.696c.375.009.73.191.963.52zM33.45 7.431L9.713 7.404 12.449 19h18.596zM14.522 24.69c1.363 0 2.47 1.24 2.47 2.762 0 1.514-1.107 2.754-2.47 2.754-1.362 0-2.47-1.24-2.47-2.754 0-1.522 1.108-2.762 2.47-2.762m14.901 0c1.363 0 2.471 1.24 2.471 2.762 0 1.514-1.108 2.754-2.47 2.754-1.363 0-2.472-1.24-2.472-2.754 0-1.522 1.109-2.762 2.471-2.762"/></g></g></svg>