<svg xmlns="http://www.w3.org/2000/svg" width="32" height="27" viewBox="0 0 32 27"><g><g><path fill="#1a1919" d="M31.103 4.542a1.3 1.3 0 0 1 .205 1.009l-2.57 12.46c-.112.54-.542.92-1.04.92H9.943c-.485 0-.909-.365-1.032-.889L5.993 5.582a.449.449 0 0 1-.013-.055l-.677-2.89H1.095c-.59 0-1.067-.533-1.067-1.192 0-.659.478-1.19 1.067-1.19h5.031c.485 0 .909.364 1.032.889l.683 2.922 22.429.024c.325.008.631.166.833.452zm-2.174 1.93L8.4 6.448l2.367 10.101H26.85zm-16.37 15.033c1.179 0 2.138 1.08 2.138 2.406 0 1.318-.959 2.398-2.137 2.398-1.179 0-2.137-1.08-2.137-2.398 0-1.326.958-2.406 2.137-2.406m12.887 0c1.178 0 2.137 1.08 2.137 2.406 0 1.318-.959 2.398-2.137 2.398s-2.137-1.08-2.137-2.398c0-1.326.959-2.406 2.137-2.406"/></g></g></svg>